<?xml version="1.0" standalone="no"?>
<!DOCTYPE svg PUBLIC "-//W3C//DTD SVG 20010904//EN"
 "http://www.w3.org/TR/2001/REC-SVG-20010904/DTD/svg10.dtd">
<svg version="1.0" xmlns="http://www.w3.org/2000/svg"
 width="512.000000pt" height="512.000000pt" viewBox="0 0 512.000000 512.000000"
 preserveAspectRatio="xMidYMid meet">

<g transform="translate(0.000000,512.000000) scale(0.100000,-0.100000)"
fill="#000000" stroke="none">
<path d="M2472 5099 c-47 -24 -83 -66 -101 -118 -8 -25 -11 -506 -11 -1798 0
-971 -3 -1763 -7 -1761 -5 2 -30 15 -58 29 -148 79 -335 121 -529 121 -623 -1
-1082 -454 -957 -944 73 -286 345 -519 700 -599 123 -28 312 -35 436 -16 435
67 754 342 805 693 6 43 10 509 10 1222 0 633 2 1152 5 1152 22 0 217 -103
299 -157 292 -194 497 -485 586 -833 l21 -82 -50 -68 c-59 -81 -66 -95 -75
-139 -21 -111 75 -221 193 -221 97 0 139 34 253 204 254 378 385 900 323 1284
-29 180 -107 378 -211 534 -61 91 -203 239 -313 327 -47 38 -174 128 -281 202
-345 235 -443 318 -559 473 -131 174 -172 249 -201 364 -21 82 -109 151 -195
152 -22 0 -59 -10 -83 -21z"/>
</g>
</svg>
