<?xml version="1.0" encoding="UTF-8" standalone="no"?>
<svg
   xmlns:dc="http://purl.org/dc/elements/1.1/"
   xmlns:cc="http://creativecommons.org/ns#"
   xmlns:rdf="http://www.w3.org/1999/02/22-rdf-syntax-ns#"
   xmlns:svg="http://www.w3.org/2000/svg"
   xmlns="http://www.w3.org/2000/svg"
   xmlns:sodipodi="http://sodipodi.sourceforge.net/DTD/sodipodi-0.dtd"
   xmlns:inkscape="http://www.inkscape.org/namespaces/inkscape"
   color-rendering="auto"
   color-interpolation="auto"
   text-rendering="auto"
   stroke-miterlimit="10"
   shape-rendering="auto"
   font-weight="normal"
   font-style="normal"
   font-size="12"
   image-rendering="auto"
   id="svg2"
   version="1.1"
   inkscape:version="0.48.5 r10040"
   width="120.9375"
   height="99.421898"
   sodipodi:docname="musical_symbol_repeated_figure2.svg"
   style="font-size:12px;font-style:normal;font-weight:normal;fill:#000000;fill-opacity:1;stroke:#000000;stroke-width:1;stroke-linecap:square;stroke-linejoin:miter;stroke-miterlimit:10;stroke-opacity:1;stroke-dasharray:none;stroke-dashoffset:0;font-family:Dialog">
  <title
     id="title2990">MUSICAL SYMBOL REPEATED FIGURE-2</title>
  <metadata
     id="metadata13">
    <rdf:RDF>
      <cc:Work
         rdf:about="">
        <dc:format>image/svg+xml</dc:format>
        <dc:type
           rdf:resource="http://purl.org/dc/dcmitype/StillImage" />
        <dc:title>MUSICAL SYMBOL REPEATED FIGURE-2</dc:title>
      </cc:Work>
    </rdf:RDF>
  </metadata>
  <sodipodi:namedview
     pagecolor="#ffffff"
     bordercolor="#666666"
     borderopacity="1"
     objecttolerance="10"
     gridtolerance="10"
     guidetolerance="10"
     inkscape:pageopacity="0"
     inkscape:pageshadow="2"
     inkscape:window-width="927"
     inkscape:window-height="480"
     id="namedview11"
     showgrid="false"
     fit-margin-top="0"
     fit-margin-left="0"
     fit-margin-right="0"
     fit-margin-bottom="0"
     inkscape:zoom="0.22425739"
     inkscape:cx="-860.91099"
     inkscape:cy="-217.93109"
     inkscape:window-x="918"
     inkscape:window-y="210"
     inkscape:window-maximized="0"
     inkscape:current-layer="svg2" />
  <!--Unicode Character 'MUSICAL SYMBOL REPEATED FIGURE-2' (U+1D10E)-->
  <defs
     id="genericDefs" />
  <g
     id="g5"
     transform="translate(0,-208.8281)">
    <g
       id="g7">
      <path
         d="m 107.7188,283.6406 q 0,5.0625 -3.5157,8.7891 -3.5156,3.7265 -8.4375,3.7265 -4.6406,0 -8.2968,-3.8671 -3.6563,-3.8672 -3.6563,-8.6485 0,-4.9218 3.5156,-8.4375 3.5157,-3.5156 8.4375,-3.5156 4.7813,0 8.3672,3.5859 3.586,3.586 3.586,8.3672 z M 120.9375,208.8281 36.1406,308.25 0,308.25 l 84.9375,-99.4219 36,0 z m -83.9531,25.0313 q 0,4.9218 -3.5156,8.4375 -3.5157,3.5156 -8.4376,3.5156 -4.5,0 -8.1562,-3.7266 -3.6562,-3.7265 -3.6562,-8.2265 0,-4.6406 3.5859,-8.4375 3.5859,-3.7969 8.2265,-3.7969 4.9219,0 8.4376,3.6562 3.5156,3.6563 3.5156,8.5782 z"
         id="path9"
         inkscape:connector-curvature="0"
         style="stroke:none" />
    </g>
  </g>
</svg>
